<?xml version="1.0" encoding="UTF-8" standalone="no"?>
<!-- Created with Inkscape (http://www.inkscape.org/) -->

<svg
   xmlns:a="http://ns.adobe.com/AdobeSVGViewerExtensions/3.0/"
   xmlns:dc="http://purl.org/dc/elements/1.1/"
   xmlns:cc="http://creativecommons.org/ns#"
   xmlns:rdf="http://www.w3.org/1999/02/22-rdf-syntax-ns#"
   xmlns:svg="http://www.w3.org/2000/svg"
   xmlns="http://www.w3.org/2000/svg"
   xmlns:xlink="http://www.w3.org/1999/xlink"
   xmlns:sodipodi="http://sodipodi.sourceforge.net/DTD/sodipodi-0.dtd"
   xmlns:inkscape="http://www.inkscape.org/namespaces/inkscape"
   id="svg2"
   version="1.1"
   inkscape:version="0.91 r13725"
   xml:space="preserve"
   width="682.46625"
   height="688.09003"
   viewBox="0 0 682.46625 688.09003"
   sodipodi:docname="icon.svg"><metadata
     id="metadata8"><rdf:RDF><cc:Work
         rdf:about=""><dc:format>image/svg+xml</dc:format><dc:type
           rdf:resource="http://purl.org/dc/dcmitype/StillImage" /><dc:title></dc:title></cc:Work></rdf:RDF></metadata><defs
     id="defs6"><clipPath
       clipPathUnits="userSpaceOnUse"
       id="clipPath20"><path
         d="m 0,550.472 545.973,0 L 545.973,0 0,0 0,550.472 Z"
         id="path22"
         inkscape:connector-curvature="0" /></clipPath><linearGradient
       y2="179.2"
       x2="115.2"
       y1="72.533333"
       x1="110.93333"
       gradientUnits="userSpaceOnUse"
       id="linearGradient3074"
       xlink:href="#linearGradient3206"
       inkscape:collect="always" /><linearGradient
       id="linearGradient3206"><stop
         id="stop3208"
         offset="0"
         style="stop-color:#000000;stop-opacity:1;" /><stop
         style="stop-color:#000000;stop-opacity:1;"
         offset="0.19270271"
         id="stop3214" /><stop
         id="stop3216"
         offset="0.30887511"
         style="stop-color:#dd0000;stop-opacity:1;" /><stop
         style="stop-color:#dd0000;stop-opacity:1;"
         offset="0.73000002"
         id="stop3218" /><stop
         id="stop3220"
         offset="0.86000001"
         style="stop-color:#ffce00;stop-opacity:1;" /><stop
         id="stop3210"
         offset="1"
         style="stop-color:#ffce00;stop-opacity:1;" /></linearGradient><linearGradient
       y2="141.97276"
       x2="240.9473"
       y1="141.97266"
       x1="87.396973"
       gradientTransform="matrix(1.567692,0,0,1.567692,-129.3714,-94.56962)"
       gradientUnits="userSpaceOnUse"
       id="linearGradient3068"
       xlink:href="#XMLID_22_"
       inkscape:collect="always" /><linearGradient
       gradientTransform="matrix(1.567692,0,0,1.567692,-129.3706,-94.56783)"
       x1="87.396973"
       y1="141.97266"
       x2="240.94727"
       y2="141.97266"
       id="XMLID_22_"
       gradientUnits="userSpaceOnUse"><stop
         style="stop-color:white;stop-opacity:0.66666675;"
         offset="0"
         id="stop139" /><stop
         style="stop-color:#d7d7d7;stop-opacity:0.21875;"
         offset="0.24074516"
         id="stop143" /><stop
         style="stop-color:#4d4d4d;stop-opacity:0;"
         offset="0.4585622"
         id="stop145" /><stop
         id="stop3696"
         offset="0.71891773"
         style="stop-color:white;stop-opacity:0.51041669;" /><stop
         id="stop2807"
         offset="0.87351298"
         style="stop-color:#f2f2f2;stop-opacity:0.40000001;" /><stop
         style="stop-color:white;stop-opacity:0.62352943;"
         offset="1"
         id="stop3694" /><a:midPointStop
         style="stop-color:#E9E9EF"
         offset="0" /><a:midPointStop
         style="stop-color:#E9E9EF"
         offset="0.5" /><a:midPointStop
         style="stop-color:#B1B1C5"
         offset="0.157303" /><a:midPointStop
         style="stop-color:#B1B1C5"
         offset="0.5" /><a:midPointStop
         style="stop-color:#CECEDB"
         offset="0.314607" /><a:midPointStop
         style="stop-color:#CECEDB"
         offset="0.5" /><a:midPointStop
         style="stop-color:#FFFFFF"
         offset="0.65" /><a:midPointStop
         style="stop-color:#FFFFFF"
         offset="0.5" /><a:midPointStop
         style="stop-color:#CECEDB"
         offset="0.837079" /><a:midPointStop
         style="stop-color:#CECEDB"
         offset="0.5" /><a:midPointStop
         style="stop-color:#FFFF66"
         offset="1" /></linearGradient></defs><sodipodi:namedview
     pagecolor="#ffffff"
     bordercolor="#666666"
     borderopacity="1"
     objecttolerance="10"
     gridtolerance="10"
     guidetolerance="10"
     inkscape:pageopacity="0"
     inkscape:pageshadow="2"
     inkscape:window-width="974"
     inkscape:window-height="604"
     id="namedview4"
     showgrid="false"
     inkscape:zoom="0.34297838"
     inkscape:cx="341.23312"
     inkscape:cy="344.04501"
     inkscape:window-x="0"
     inkscape:window-y="23"
     inkscape:window-maximized="0"
     inkscape:current-layer="g10" /><g
     id="g10"
     inkscape:groupmode="layer"
     inkscape:label="comrades-logo-A"
     transform="matrix(1.25,0,0,-1.25,0,688.09)"><g
       id="g12"
       transform="translate(419.2129,91.0742)"><path
         d="m 0,0 87.356,0 -190.508,424.703 -87.369,0 L -381.025,0 l 86.761,0 34.513,75.932 34.043,78.789 78.874,180.802 L -67.96,154.721 -37.093,80.093 0,0 Z"
         style="fill:#ee2935;fill-opacity:1;fill-rule:nonzero;stroke:none"
         id="path14"
         inkscape:connector-curvature="0" /></g><g
       id="g16"><g
         id="g18"
         clip-path="url(#clipPath20)"><g
           id="g24"
           transform="translate(37.4736,50.25)"><path
             d="m 0,0 231.934,0 m 237.015,0.006 c -14.822,0 -14.822,-16.097 -29.637,-16.097 -14.822,0 -14.822,16.097 -29.648,16.097 -14.822,0 -14.822,-16.097 -29.631,-16.097 -14.822,0 -14.822,16.097 -29.642,16.097 -14.816,0 -14.816,-16.097 -29.626,-16.097 -14.827,0 -14.827,16.097 -29.648,16.097 -14.809,0 -14.809,-16.097 -29.625,-16.097 -14.821,0 -14.821,16.097 -29.637,16.097"
             style="fill:none;stroke:#ee2935;stroke-width:1;stroke-linecap:butt;stroke-linejoin:miter;stroke-miterlimit:4;stroke-dasharray:none;stroke-opacity:1"
             id="path26"
             inkscape:connector-curvature="0" /></g></g></g><g
       id="g4701"
       transform="matrix(1.0300721,0,0,-1.0300721,255.34719,337.10996)"><g
         style="display:inline;opacity:1"
         inkscape:label="drapeau"
         id="layer2" /><g
         style="display:inline;opacity:1"
         inkscape:label="ombre"
         id="layer1-6"><polyline
           id="_x3C_Slice_x3E_"
           points="0,256 0,0 256,0 256,256 "
           style="fill:none" /><path
           d="M 248.36055,32.472022 C 167.27229,-10.429768 86.183274,85.849332 5.0950169,40.005058 2.2811336,38.417463 1.7853684e-5,39.212792 1.7853684e-5,42.029738 c 0,57.313381 0,114.627522 0,171.940902 0,2.81082 2.281115746316,6.57849 5.094999046316,8.16455 81.9363991,46.325 163.8735731,-52.46409 245.8099731,-6.13986 2.81388,1.58682 5.095,0.79226 5.095,-2.02469 0,-57.31338 0,-114.627521 0,-171.940902 0,-2.810823 -2.28112,-6.577723 -5.095,-8.165317 -0.84814,-0.479187 -1.69629,-0.943066 -2.54444,-1.392399 z"
           style="display:inline;fill:#4d4d4d;fill-opacity:1"
           id="path15"
           inkscape:connector-curvature="0" /><path
           inkscape:connector-curvature="0"
           id="path4756"
           style="display:inline;fill:#4d4d4d;fill-opacity:1;stroke:#ffffff;stroke-width:18.94081116;stroke-miterlimit:4;stroke-dasharray:none;stroke-opacity:1"
           d="M 248.36055,32.472022 C 167.27229,-10.429768 86.183274,85.849332 5.0950169,40.005058 2.2811336,38.417463 1.7853684e-5,39.212792 1.7853684e-5,42.029738 c 0,57.313381 0,114.627522 0,171.940902 0,2.81082 2.281115746316,6.57849 5.094999046316,8.16455 81.9363991,46.325 163.8735731,-52.46409 245.8099731,-6.13986 2.81388,1.58682 5.095,0.79226 5.095,-2.02469 0,-57.31338 0,-114.627521 0,-171.940902 0,-2.810823 -2.28112,-6.577723 -5.095,-8.165317 -0.84814,-0.479187 -1.69629,-0.943066 -2.54444,-1.392399 z" /><path
           d="m 248.36055,37.567021 c 0,1.853979 -14.89154,-10.205307 -37.30922,-11.054219 -22.41617,-2.351538 -52.35541,6.505769 -82.45234,15.426609 C 98.502062,50.838819 68.2505,59.830085 45.210481,57.499214 22.170459,56.646475 6.3427413,44.472367 5.0950169,45.100057 c 0,4.876072 0,167.063303 0,171.940903 1.234711,-0.80222 16.9070381,11.48136 39.7977911,12.39534 22.889987,2.39899 52.99917,-6.56931 83.107572,-15.50775 30.10919,-8.92926 60.21836,-17.85624 83.10759,-15.43733 22.89075,0.93235 38.56307,13.21056 39.79702,12.40911 0,-4.87761 0,-167.064838 0,-171.94091 -1.27375,-0.722609 -2.54444,-1.392399 -2.54444,-1.392399 z"
           style="display:inline;fill:url(#linearGradient3074);fill-opacity:1"
           id="path30"
           inkscape:connector-curvature="0" /><path
           sodipodi:nodetypes="ccccc"
           d="M 248.36055,128 7.64252,128 c 0,-55.61555 0,-23.34372 0,-78.95852 80.23934,42.4494 160.47946,-51.37942 240.71803,-8.92696 0,55.61556 0,32.2707 0,87.88548 z"
           style="display:inline;fill:#000000;fill-opacity:1"
           id="path45"
           inkscape:connector-curvature="0" /><path
           sodipodi:nodetypes="ccccc"
           id="path3890"
           style="display:inline;fill:#dd0000;fill-opacity:1"
           d="m 248.36055,192 c -80.24011,-42.45245 -160.47869,42.44863 -240.71803,0 0,-55.61555 0,-31.89396 0,-87.50875 80.23934,42.44939 160.47946,-51.37942 240.71803,-8.92697 0,55.61556 0,40.82094 0,96.43572 z"
           inkscape:connector-curvature="0" /><path
           d="m 248.36055,206.96042 c -80.24011,-42.45245 -160.47869,51.3756 -240.71803,8.92697 0,-55.61555 0,-0.0312 0,-55.64598 80.23934,42.44939 160.47946,-51.78785 240.71803,-9.33539 0,55.61555 0,0.43962 0,56.0544 z"
           style="display:inline;fill:#ffce00;fill-opacity:1"
           id="path3892"
           sodipodi:nodetypes="ccccc"
           inkscape:connector-curvature="0" /><path
           d="m 248.35974,206.96001 c -80.24012,-42.45169 -160.480231,51.37712 -240.7195788,8.92543 0,-55.61478 0,-111.23035 0,-166.84589 C 87.879509,91.49047 168.11962,-2.33758 248.35974,40.11488 c 0,55.61478 0,111.23035 0,166.84513 z"
           style="fill:url(#linearGradient3068)"
           id="path5924"
           inkscape:connector-curvature="0" /></g></g></g></svg>